<mxfile host="app.diagrams.net" modified="2024-04-11T20:50:28.651Z" agent="Mozilla/5.0 (Macintosh; Intel Mac OS X 10_15_7) AppleWebKit/537.36 (KHTML, like Gecko) Chrome/123.0.0.0 Safari/537.36" version="24.2.3" etag="1Qpi9sySt155Rfx4eiDK" type="github">
  <diagram name="Page-1" id="wX8rYYWN-VKnWRGRJ8qP">
    <mxGraphModel>
      <root>
        <mxCell id="0" />
        <mxCell id="1" parent="0" />
      </root>
    </mxGraphModel>
  </diagram>
</mxfile>
